<?xml version="1.0" encoding="UTF-8" standalone="no"?>
<!DOCTYPE svg PUBLIC "-//W3C//DTD SVG 1.1//EN" "http://www.w3.org/Graphics/SVG/1.1/DTD/svg11.dtd">
<svg width="100%" height="100%" viewBox="0 0 1182 1182" version="1.1" xmlns="http://www.w3.org/2000/svg" xmlns:xlink="http://www.w3.org/1999/xlink" xml:space="preserve" xmlns:serif="http://www.serif.com/" style="fill-rule:evenodd;clip-rule:evenodd;stroke-linejoin:round;stroke-miterlimit:2;">
    <g transform="matrix(0,-4.733192,4.733192,0,-668.477323,1792.563577)">
        <g transform="matrix(50,0,0,50,381.016866,177.633195)">
        </g>
        <text x="129.137px" y="177.633px" style="font-family:'Arial-Black', 'Arial Black', sans-serif;font-weight:900;font-size:50px;fill:rgb(37,57,92);">AR<tspan x="206.017px 244.908px " y="177.633px 177.633px ">CH</tspan>IVE</text>
    </g>
    <g transform="matrix(1,0,0,1.052405,0,-61.895998)">
        <path d="M1181.102,354.592L1181.102,1053.51C1181.102,1123.93 1120.934,1181.102 1046.824,1181.102L341.279,1181.102C267.168,1181.102 207,1123.93 207,1053.51L207,354.592C207,284.172 267.168,227 341.279,227L1046.824,227C1120.934,227 1181.102,284.172 1181.102,354.592Z" style="fill:rgb(37,57,92);"/>
    </g>
    <g transform="matrix(0.936352,0,0,0.802218,44.175207,-21.181515)">
        <path d="M1180.407,341.536C1180.867,345.829 1181.102,350.185 1181.102,354.592L207,354.592C207,284.172 267.168,227 341.279,227L590.551,227L590.551,121.599C590.551,86.947 620.159,58.814 656.627,58.814L1115.027,58.814C1151.495,58.814 1181.102,86.947 1181.102,121.599L1181.102,332.401C1181.102,335.503 1180.865,338.554 1180.407,341.536" style="fill:white;"/>
    </g>
    <g transform="matrix(0.951177,0,0,1.052405,33.88583,-56.535307)">
        <path d="M1205.552,341.945C1205.916,346.115 1206.102,350.333 1206.102,354.592C1206.102,359.671 1204.425,364.378 1201.568,368.239L1201.532,368.475L1201.405,368.457C1196.866,374.447 1189.463,378.347 1181.102,378.347L207,378.347C193.193,378.347 182,367.712 182,354.592C182,271.061 253.37,203.245 341.279,203.245L565.551,203.245L565.551,121.599C565.551,73.836 606.361,35.059 656.627,35.059L1115.027,35.059C1165.293,35.059 1206.102,73.836 1206.102,121.599L1206.102,332.401C1206.102,335.626 1205.915,338.811 1205.552,341.945ZM1156.233,330.837L1156.102,320.01L1156.102,121.599C1156.102,100.058 1137.697,82.569 1115.027,82.569L656.627,82.569C633.957,82.569 615.551,100.058 615.551,121.599L615.551,227C615.551,240.12 604.358,250.755 590.551,250.755L341.279,250.755C289.566,250.755 246.196,284.96 234.878,330.837L1156.233,330.837Z" style="fill:rgb(37,57,92);"/>
    </g>
    <g transform="matrix(1.169379,0,0,1.175569,-180.358087,332.819183)">
        <g transform="matrix(600,0,0,600,1115.284286,506.485818)">
        </g>
        <text x="348.292px" y="506.486px" style="font-family:'Arial-BoldItalicMT', 'Arial', sans-serif;font-weight:700;font-style:italic;font-size:600px;fill:white;">3D</text>
    </g>
</svg>
